<?xml version="1.0" encoding="utf-8"?>
<!-- Generator: Adobe Illustrator 16.0.4, SVG Export Plug-In . SVG Version: 6.00 Build 0)  -->
<!DOCTYPE svg PUBLIC "-//W3C//DTD SVG 1.1//EN" "http://www.w3.org/Graphics/SVG/1.1/DTD/svg11.dtd">
<svg version="1.1" id="logo" xmlns="http://www.w3.org/2000/svg" xmlns:xlink="http://www.w3.org/1999/xlink"
     viewBox="0 0 150 150" xml:space="preserve">

     <g>
        <path fill="#f56b6b" d="M135.331,33.534L80.862,2.025c-3.219-1.863-8.493-1.88-11.723-0.041L14.5,33.12
            c-3.229,1.841-5.88,6.376-5.891,10.079l-0.172,62.647c-0.01,3.703,2.616,8.256,5.835,10.117l54.469,31.51
            c3.218,1.863,8.494,1.883,11.722,0.043l54.641-31.138c3.23-1.84,5.881-6.375,5.892-10.077l0.171-62.648
            C141.176,39.95,138.551,35.396,135.331,33.534z M74.8,114.454c-21.992,0-39.818-17.774-39.818-39.702
            c0-21.926,17.827-39.701,39.818-39.701c21.99,0,39.816,17.775,39.816,39.701C114.616,96.68,96.79,114.454,74.8,114.454z"/>
        <path fill-rule="evenodd" clip-rule="evenodd" fill="#f56b6b" d="M74.801,41.989c-5.626,0-10.922,1.414-15.552,3.899
            c1.229,1.491,1.97,3.402,1.97,5.484c0,4.774-3.88,8.643-8.668,8.643c-2.252,0-4.299-0.864-5.84-2.269
            c-3.024,4.957-4.766,10.776-4.766,17.002c0,18.092,14.71,32.759,32.857,32.759c18.148,0,32.86-14.667,32.86-32.759
            C107.661,56.657,92.949,41.989,74.801,41.989z"/>
    </g>
</svg>
